<?xml version="1.0" encoding="UTF-8"?>
<svg width="214px" height="50px" viewBox="0 0 214 50" version="1.1" xmlns="http://www.w3.org/2000/svg" xmlns:xlink="http://www.w3.org/1999/xlink">
    <title>Artboard</title>
    <g id="Artboard" stroke="none" stroke-width="1" fill="none" fill-rule="evenodd">
        <path d="M10.168,39 L10.168,32.481 C11.9173333,32.481 13.5505,32.2896667 15.0675,31.907 C16.5845,31.5243333 17.9101667,30.923 19.0445,30.103 C20.1788333,29.283 21.074,28.2101667 21.73,26.8845 C22.386,25.5588333 22.714,23.953 22.714,22.067 C22.714,20.181 22.386,18.5751667 21.73,17.2495 C21.074,15.9238333 20.1788333,14.851 19.0445,14.031 C17.9101667,13.211 16.5845,12.6096667 15.0675,12.227 C13.5505,11.8443333 11.9173333,11.653 10.168,11.653 L10.168,11.653 L1.435,11.653 L1.435,39 L10.168,39 Z M6.601,35.72 L5.535,35.72 L5.535,14.933 L10.168,14.933 C11.398,14.933 12.5391667,15.0765 13.5915,15.3635 C14.6438333,15.6505 15.5526667,16.081 16.318,16.655 C17.0833333,17.229 17.6778333,17.967 18.1015,18.869 C18.5251667,19.771 18.737,20.837 18.737,22.067 C18.737,23.297 18.5251667,24.363 18.1015,25.265 C17.6778333,26.167 17.0833333,26.905 16.318,27.479 C15.5526667,28.053 14.6438333,28.4835 13.5915,28.7705 C12.5391667,29.0575 11.398,29.201 10.168,29.201 L10.168,29.201 L6.601,29.201 L6.601,35.72 Z M10.168,28.217 C11.152,28.217 12.0881667,28.1145 12.9765,27.9095 C13.8648333,27.7045 14.6506667,27.3696667 15.334,26.905 C16.0173333,26.4403333 16.564,25.8116667 16.974,25.019 C17.384,24.2263333 17.589,23.2423333 17.589,22.067 C17.589,20.8916667 17.384,19.9076667 16.974,19.115 C16.564,18.3223333 16.0173333,17.6936667 15.334,17.229 C14.6506667,16.7643333 13.8648333,16.4295 12.9765,16.2245 C12.0881667,16.0195 11.152,15.917 10.168,15.917 L10.168,15.917 L6.601,15.917 L6.601,28.217 L10.168,28.217 Z M10.537,25.101 L10.168,25.101 L10.168,19.033 L10.537,19.033 C11.685,19.033 12.5118333,19.2995 13.0175,19.8325 C13.5231667,20.3655 13.776,21.1103333 13.776,22.067 C13.776,23.0236667 13.5231667,23.7685 13.0175,24.3015 C12.5118333,24.8345 11.685,25.101 10.537,25.101 L10.537,25.101 Z M33.497,39 L33.497,32.071 L37.597,39 L47.847,39 L42.722,29.98 C43.4053333,29.488 44.0203333,28.8866667 44.567,28.176 C45.0316667,27.5473333 45.4553333,26.7546667 45.838,25.798 C46.2206667,24.8413333 46.412,23.6796667 46.412,22.313 C46.412,20.591 46.1045,19.0671667 45.4895,17.7415 C44.8745,16.4158333 44.0203333,15.302 42.927,14.4 C41.8336667,13.498 40.5421667,12.8146667 39.0525,12.35 C37.5628333,11.8853333 35.9433333,11.653 34.194,11.653 L34.194,11.653 L24.764,11.653 L24.764,39 L33.497,39 Z M29.93,35.72 L28.864,35.72 L28.864,14.933 L33.292,14.933 C34.5766667,14.933 35.7656667,15.0901667 36.859,15.4045 C37.9523333,15.7188333 38.9021667,16.1835 39.7085,16.7985 C40.5148333,17.4135 41.1503333,18.172 41.615,19.074 C42.0796667,19.976 42.312,21.0283333 42.312,22.231 C42.312,23.953 41.8746667,25.3538333 41,26.4335 C40.1253333,27.5131667 38.95,28.3126667 37.474,28.832 L37.474,28.832 L41.574,35.72 L40.303,35.72 L36.408,29.16 C35.3966667,29.3786667 34.358,29.488 33.292,29.488 L33.292,29.488 L29.93,29.488 L29.93,35.72 Z M33.292,28.504 C35.7793333,28.504 37.7268333,27.9641667 39.1345,26.8845 C40.5421667,25.8048333 41.246,24.2536667 41.246,22.231 C41.246,20.2083333 40.5421667,18.6503333 39.1345,17.557 C37.7268333,16.4636667 35.7793333,15.917 33.292,15.917 L33.292,15.917 L29.93,15.917 L29.93,28.504 L33.292,28.504 Z M33.948,25.101 L33.497,25.101 L33.497,19.033 L33.948,19.033 C34.9866667,19.033 35.8681667,19.2653333 36.5925,19.73 C37.3168333,20.1946667 37.679,20.9736667 37.679,22.067 C37.679,23.1603333 37.3168333,23.9393333 36.5925,24.404 C35.8681667,24.8686667 34.9866667,25.101 33.948,25.101 L33.948,25.101 Z M62.402,39.697 C64.37,39.697 66.2286667,39.3211667 67.978,38.5695 C69.7273333,37.8178333 71.2511667,36.7928333 72.5495,35.4945 C73.8478333,34.1961667 74.8728333,32.6723333 75.6245,30.923 C76.3761667,29.1736667 76.752,27.315 76.752,25.347 C76.752,23.379 76.3761667,21.5203333 75.6245,19.771 C74.8728333,18.0216667 73.8478333,16.4978333 72.5495,15.1995 C71.2511667,13.9011667 69.7273333,12.8761667 67.978,12.1245 C66.2286667,11.3728333 64.37,10.997 62.402,10.997 C60.434,10.997 58.5753333,11.3728333 56.826,12.1245 C55.0766667,12.8761667 53.5528333,13.9011667 52.2545,15.1995 C50.9561667,16.4978333 49.9311667,18.0216667 49.1795,19.771 C48.4278333,21.5203333 48.052,23.379 48.052,25.347 C48.052,27.315 48.4278333,29.1736667 49.1795,30.923 C49.9311667,32.6723333 50.9561667,34.1961667 52.2545,35.4945 C53.5528333,36.7928333 55.0766667,37.8178333 56.826,38.5695 C58.5753333,39.3211667 60.434,39.697 62.402,39.697 Z M62.402,35.843 C60.9533333,35.843 59.5935,35.5696667 58.3225,35.023 C57.0515,34.4763333 55.9376667,33.7246667 54.981,32.768 C54.0243333,31.8113333 53.2726667,30.6975 52.726,29.4265 C52.1793333,28.1555 51.906,26.7956667 51.906,25.347 C51.906,23.8983333 52.1793333,22.5385 52.726,21.2675 C53.2726667,19.9965 54.0243333,18.8826667 54.981,17.926 C55.9376667,16.9693333 57.0515,16.2176667 58.3225,15.671 C59.5935,15.1243333 60.9533333,14.851 62.402,14.851 C63.8506667,14.851 65.2105,15.1243333 66.4815,15.671 C67.7525,16.2176667 68.8663333,16.9693333 69.823,17.926 C70.7796667,18.8826667 71.5313333,19.9965 72.078,21.2675 C72.6246667,22.5385 72.898,23.8983333 72.898,25.347 C72.898,26.7956667 72.6246667,28.1555 72.078,29.4265 C71.5313333,30.6975 70.7796667,31.8113333 69.823,32.768 C68.8663333,33.7246667 67.7525,34.4763333 66.4815,35.023 C65.2105,35.5696667 63.8506667,35.843 62.402,35.843 Z M62.402,34.777 C63.714,34.777 64.9371667,34.531 66.0715,34.039 C67.2058333,33.547 68.2035,32.8705 69.0645,32.0095 C69.9255,31.1485 70.602,30.1508333 71.094,29.0165 C71.586,27.8821667 71.832,26.659 71.832,25.347 C71.832,24.035 71.586,22.8118333 71.094,21.6775 C70.602,20.5431667 69.9255,19.5455 69.0645,18.6845 C68.2035,17.8235 67.2058333,17.147 66.0715,16.655 C64.9371667,16.163 63.714,15.917 62.402,15.917 C61.09,15.917 59.8668333,16.163 58.7325,16.655 C57.5981667,17.147 56.6005,17.8235 55.7395,18.6845 C54.8785,19.5455 54.202,20.5431667 53.71,21.6775 C53.218,22.8118333 52.972,24.035 52.972,25.347 C52.972,26.659 53.218,27.8821667 53.71,29.0165 C54.202,30.1508333 54.8785,31.1485 55.7395,32.0095 C56.6005,32.8705 57.5981667,33.547 58.7325,34.039 C59.8668333,34.531 61.09,34.777 62.402,34.777 Z M62.402,31.087 C61.6093333,31.087 60.8645,30.9366667 60.1675,30.636 C59.4705,30.3353333 58.8623333,29.9253333 58.343,29.406 C57.8236667,28.8866667 57.4136667,28.2785 57.113,27.5815 C56.8123333,26.8845 56.662,26.1396667 56.662,25.347 C56.662,24.5543333 56.8123333,23.8095 57.113,23.1125 C57.4136667,22.4155 57.8236667,21.8073333 58.343,21.288 C58.8623333,20.7686667 59.4705,20.3586667 60.1675,20.058 C60.8645,19.7573333 61.6093333,19.607 62.402,19.607 C63.1946667,19.607 63.9395,19.7573333 64.6365,20.058 C65.3335,20.3586667 65.9416667,20.7686667 66.461,21.288 C66.9803333,21.8073333 67.3903333,22.4155 67.691,23.1125 C67.9916667,23.8095 68.142,24.5543333 68.142,25.347 C68.142,26.1396667 67.9916667,26.8845 67.691,27.5815 C67.3903333,28.2785 66.9803333,28.8866667 66.461,29.406 C65.9416667,29.9253333 65.3335,30.3353333 64.6365,30.636 C63.9395,30.9366667 63.1946667,31.087 62.402,31.087 Z M92.742,39.697 C94.0813333,39.697 95.3796667,39.5193333 96.637,39.164 C97.8943333,38.8086667 99.0628333,38.303 100.1425,37.647 C101.222167,36.991 102.199333,36.2051667 103.074,35.2895 C103.948667,34.3738333 104.700333,33.3556667 105.329,32.235 L105.329,32.235 L105.329,23.133 L94.792,23.133 L94.792,28.873 L97.252,28.873 C96.7053333,29.5563333 96.0493333,30.0961667 95.284,30.4925 C94.5186667,30.8888333 93.6713333,31.087 92.742,31.087 C91.9493333,31.087 91.2045,30.9435 90.5075,30.6565 C89.8105,30.3695 89.2023333,29.9731667 88.683,29.4675 C88.1636667,28.9618333 87.7536667,28.3536667 87.453,27.643 C87.1523333,26.9323333 87.002,26.167 87.002,25.347 C87.002,24.527 87.1386667,23.7616667 87.412,23.051 C87.6853333,22.3403333 88.0611667,21.7321667 88.5395,21.2265 C89.0178333,20.7208333 89.585,20.3245 90.241,20.0375 C90.897,19.7505 91.6213333,19.607 92.414,19.607 C93.1246667,19.607 93.849,19.7231667 94.587,19.9555 C95.325,20.1878333 95.94,20.5226667 96.432,20.96 L96.432,20.96 L101.393,13.908 C100.791667,13.3886667 100.04,12.9103333 99.138,12.473 C98.3726667,12.0903333 97.4296667,11.7486667 96.309,11.448 C95.1883333,11.1473333 93.8626667,10.997 92.332,10.997 C90.364,10.997 88.5258333,11.3728333 86.8175,12.1245 C85.1091667,12.8761667 83.6331667,13.9011667 82.3895,15.1995 C81.1458333,16.4978333 80.1686667,18.0216667 79.458,19.771 C78.7473333,21.5203333 78.392,23.379 78.392,25.347 C78.392,27.3696667 78.7678333,29.2556667 79.5195,31.005 C80.2711667,32.7543333 81.2961667,34.2713333 82.5945,35.556 C83.8928333,36.8406667 85.4166667,37.852 87.166,38.59 C88.9153333,39.328 90.774,39.697 92.742,39.697 Z M92.742,35.843 C91.2933333,35.843 89.9335,35.5833333 88.6625,35.064 C87.3915,34.5446667 86.2776667,33.8271667 85.321,32.9115 C84.3643333,31.9958333 83.6126667,30.8956667 83.066,29.611 C82.5193333,28.3263333 82.246,26.905 82.246,25.347 C82.246,23.789 82.5125,22.3676667 83.0455,21.083 C83.5785,19.7983333 84.3096667,18.6981667 85.239,17.7825 C86.1683333,16.8668333 87.2616667,16.1493333 88.519,15.63 C89.7763333,15.1106667 91.1293333,14.851 92.578,14.851 C93.2066667,14.851 93.7806667,14.892 94.3,14.974 C94.8193333,15.056 95.2703333,15.1516667 95.653,15.261 C96.0903333,15.3703333 96.4866667,15.507 96.842,15.671 L96.842,15.671 L96.186,16.614 C95.858,16.5046667 95.5026667,16.3953333 95.12,16.286 C94.792,16.204 94.4093333,16.122 93.972,16.04 C93.5346667,15.958 93.07,15.917 92.578,15.917 C91.266,15.917 90.0496667,16.1425 88.929,16.5935 C87.8083333,17.0445 86.8311667,17.6868333 85.9975,18.5205 C85.1638333,19.3541667 84.5078333,20.3518333 84.0295,21.5135 C83.5511667,22.6751667 83.312,23.953 83.312,25.347 C83.312,26.741 83.558,28.0188333 84.05,29.1805 C84.542,30.3421667 85.2185,31.3398333 86.0795,32.1735 C86.9405,33.0071667 87.9381667,33.6495 89.0725,34.1005 C90.2068333,34.5515 91.43,34.777 92.742,34.777 C94.382,34.777 95.8785,34.408 97.2315,33.67 C98.5845,32.932 99.6846667,31.9343333 100.532,30.677 L100.532,30.677 L100.532,26.577 L97.252,26.577 L97.252,25.593 L101.598,25.593 L101.598,30.964 C100.641333,32.44 99.3976667,33.6221667 97.867,34.5105 C96.3363333,35.3988333 94.628,35.843 92.742,35.843 Z M116.153,39 L116.153,32.153 L107.379,32.153 L107.379,39 L116.153,39 Z M113.693,36.048 L109.839,36.048 L109.839,35.105 L113.693,35.105 L113.693,36.048 Z M141.163,39.697 C142.748333,39.697 144.156,39.533 145.386,39.205 C146.616,38.877 147.668333,38.5216667 148.543,38.139 C149.554333,37.6743333 150.429,37.1413333 151.167,36.54 L151.167,36.54 L146.862,28.955 C146.452,29.365 145.973667,29.7203333 145.427,30.021 C144.962333,30.2943333 144.388333,30.5403333 143.705,30.759 C143.021667,30.9776667 142.242667,31.087 141.368,31.087 C140.493333,31.087 139.687,30.9366667 138.949,30.636 C138.211,30.3353333 137.568667,29.9253333 137.022,29.406 C136.475333,28.8866667 136.044833,28.2785 135.7305,27.5815 C135.416167,26.8845 135.259,26.1396667 135.259,25.347 C135.259,24.5543333 135.409333,23.8095 135.71,23.1125 C136.010667,22.4155 136.4275,21.8073333 136.9605,21.288 C137.4935,20.7686667 138.115333,20.3586667 138.826,20.058 C139.536667,19.7573333 140.315667,19.607 141.163,19.607 C141.983,19.607 142.714167,19.7095 143.3565,19.9145 C143.998833,20.1195 144.552333,20.3313333 145.017,20.55 C145.536333,20.8506667 146.014667,21.165 146.452,21.493 L146.452,21.493 L150.757,13.908 C150.019,13.3886667 149.144333,12.9103333 148.133,12.473 C147.258333,12.0903333 146.212833,11.7486667 144.9965,11.448 C143.780167,11.1473333 142.393,10.997 140.835,10.997 C138.867,10.997 137.008333,11.3318333 135.259,12.0015 C133.509667,12.6711667 131.979,13.6346667 130.667,14.892 C129.355,16.1493333 128.316333,17.6595 127.551,19.4225 C126.785667,21.1855 126.403,23.1603333 126.403,25.347 C126.403,27.479 126.772,29.4265 127.51,31.1895 C128.248,32.9525 129.273,34.4626667 130.585,35.72 C131.897,36.9773333 133.455,37.9545 135.259,38.6515 C137.063,39.3485 139.031,39.697 141.163,39.697 Z M141.286,35.843 C139.81,35.843 138.416,35.597 137.104,35.105 C135.792,34.613 134.644,33.9091667 133.66,32.9935 C132.676,32.0778333 131.903833,30.9776667 131.3435,29.693 C130.783167,28.4083333 130.503,26.9596667 130.503,25.347 C130.503,23.7616667 130.796833,22.3198333 131.3845,21.0215 C131.972167,19.7231667 132.751167,18.6161667 133.7215,17.7005 C134.691833,16.7848333 135.8125,16.081 137.0835,15.589 C138.3545,15.097 139.687,14.851 141.081,14.851 C141.873667,14.851 142.570667,14.9056667 143.172,15.015 C143.773333,15.1243333 144.306333,15.2473333 144.771,15.384 C145.263,15.548 145.727667,15.7256667 146.165,15.917 L146.165,15.917 L145.591,16.901 C145.263,16.7096667 144.866667,16.5456667 144.402,16.409 C144.019333,16.2723333 143.547833,16.1561667 142.9875,16.0605 C142.427167,15.9648333 141.791667,15.917 141.081,15.917 C139.632333,15.917 138.320333,16.163 137.145,16.655 C135.969667,17.147 134.972,17.8166667 134.152,18.664 C133.332,19.5113333 132.6965,20.509 132.2455,21.657 C131.7945,22.805 131.569,24.035 131.569,25.347 C131.569,26.659 131.7945,27.889 132.2455,29.037 C132.6965,30.185 133.338833,31.1826667 134.1725,32.03 C135.006167,32.8773333 136.024333,33.547 137.227,34.039 C138.429667,34.531 139.782667,34.777 141.286,34.777 C142.051333,34.777 142.721,34.7155 143.295,34.5925 C143.869,34.4695 144.361,34.326 144.771,34.162 C145.235667,33.998 145.645667,33.793 146.001,33.547 L146.001,33.547 L146.575,34.531 C146.165,34.777 145.700333,34.9956667 145.181,35.187 C144.716333,35.351 144.156,35.5013333 143.5,35.638 C142.844,35.7746667 142.106,35.843 141.286,35.843 Z M158.547,39 L159.449,36.54 L167.731,36.54 L168.633,39 L177.243,39 L166.87,11.653 L160.31,11.653 L149.937,39 L158.547,39 Z M156.046,35.72 L154.898,35.72 L162.811,14.933 L164.369,14.933 L172.282,35.72 L171.134,35.72 L170.355,33.67 L156.825,33.67 L156.046,35.72 Z M169.986,32.686 L163.59,15.917 L157.194,32.686 L169.986,32.686 Z M165.435,30.513 L161.745,30.513 L163.59,25.716 L165.435,30.513 Z M186.591,39 L186.591,28.668 L193.848,28.668 L193.848,21.862 L186.591,21.862 L186.591,18.828 L193.971,18.828 L193.971,11.653 L177.858,11.653 L177.858,39 L186.591,39 Z M183.024,35.72 L181.958,35.72 L181.958,14.933 L191.224,14.933 L191.224,15.917 L183.024,15.917 L183.024,24.773 L190.814,24.773 L190.814,25.757 L183.024,25.757 L183.024,35.72 Z M206.476,10.054 L210.699,3.699 L205.287,3.699 L201.884,10.054 L206.476,10.054 Z M205.533,8.414 L204.672,8.414 L206.312,5.339 L207.542,5.339 L205.533,8.414 Z M212.626,39 L212.626,31.825 L204.959,31.825 L204.959,28.668 L212.216,28.668 L212.216,21.862 L204.959,21.862 L204.959,18.828 L212.339,18.828 L212.339,11.653 L196.226,11.653 L196.226,39 L212.626,39 Z M209.592,35.72 L200.326,35.72 L200.326,14.933 L209.592,14.933 L209.592,15.917 L201.392,15.917 L201.392,24.773 L209.182,24.773 L209.182,25.757 L201.392,25.757 L201.392,34.736 L209.592,34.736 L209.592,35.72 Z" id="Prog.Café" fill="#803300" fill-rule="nonzero"></path>
    </g>
</svg>